<?xml version="1.0" encoding="UTF-8"?>
<svg version="1.1" xmlns="http://www.w3.org/2000/svg" width="500" height="500">
<path d="M0 0 C0.65419922 0.34643555 1.30839844 0.69287109 1.98242188 1.04980469 C19.81412894 10.55714899 35.66680788 22.19020418 50.58984375 35.8125 C52.92581254 37.93266617 55.30326875 39.9969731 57.6875 42.0625 C61.06285057 45.06738526 64.09712332 48.18279035 67.0078125 51.63671875 C68.5419478 53.45662436 70.09708884 55.24254939 71.6796875 57.01953125 C84.95474551 72.02564101 95.55935014 88.34979609 105 106 C105.40847168 106.75941895 105.81694336 107.51883789 106.23779297 108.30126953 C117.60221954 129.79599837 124.90496558 154.10382086 129 178 C129.16081055 178.90186035 129.32162109 179.8037207 129.48730469 180.73291016 C135.42506011 215.27595537 132.76502869 251.22453066 124 285 C123.71817871 286.11181641 123.71817871 286.11181641 123.43066406 287.24609375 C112.60450426 329.31566302 88.704266 365.88753176 59 397 C58.05060547 398.01126953 58.05060547 398.01126953 57.08203125 399.04296875 C52.13176599 404.18136761 46.56832724 408.55529435 41 413 C39.94848966 413.86499989 38.8977252 414.73090715 37.84765625 415.59765625 C-5.4137279 450.93441723 -60.62150979 469.20732314 -116.1875 469.25 C-116.98135101 469.25067474 -117.77520203 469.25134949 -118.59310913 469.25204468 C-132.25143298 469.23369893 -145.53202821 468.41149495 -159 466 C-159.92425781 465.83902832 -160.84851563 465.67805664 -161.80078125 465.51220703 C-207.9746331 457.20187166 -248.870965 435.66837828 -284 405 C-284.5048291 404.55978516 -285.0096582 404.11957031 -285.52978516 403.66601562 C-290.78881138 399.05337906 -295.78879262 394.38342857 -300.28515625 389.01953125 C-301.46449703 387.63064929 -302.68364935 386.27491735 -303.93359375 384.94921875 C-348.81583931 337.26697989 -367.7868224 271.26947569 -366 207 C-363.61962643 155.7579797 -344.56606286 104.70245318 -312 65 C-311.56816406 64.46665039 -311.13632812 63.93330078 -310.69140625 63.38378906 C-298.998449 49.00484091 -285.88175945 35.10195086 -271 24 C-270.37222656 23.52288574 -269.74445313 23.04577148 -269.09765625 22.55419922 C-257.91564289 14.08179384 -246.38671131 6.58984506 -234 0 C-233.14374023 -0.45616699 -232.28748047 -0.91233398 -231.40527344 -1.38232422 C-204.03434074 -15.72019637 -173.74926298 -24.86306451 -143 -28 C-142.04738281 -28.11085938 -141.09476563 -28.22171875 -140.11328125 -28.3359375 C-91.88905704 -33.10041359 -42.61011316 -22.76695753 0 0 Z M-165.52046371 67.47846365 C-167.80783375 69.83076598 -170.24789505 71.99415624 -172.6875 74.1875 C-173.56921875 74.99703125 -174.4509375 75.8065625 -175.359375 76.640625 C-177.99128804 78.99221594 -180.68939509 81.22331262 -183.4375 83.4375 C-187.43223986 86.65943101 -191.24554349 90.00655495 -195 93.5 C-199.61004336 97.78955113 -204.37782956 101.80410672 -209.28515625 105.75390625 C-212.10673495 108.0883059 -214.80590712 110.51990598 -217.5 113 C-221.05670244 116.27418423 -224.67161811 119.40642433 -228.4375 122.4375 C-232.96651573 126.09034768 -237.2476243 129.93314751 -241.49951172 133.8984375 C-245.74256482 137.83001036 -250.17263675 141.45280567 -254.72265625 145.02734375 C-257.3285918 147.14388867 -257.3285918 147.14388867 -260 151 C-237.23 151 -214.46 151 -191 151 C-190.505 157.435 -190.505 157.435 -190 164 C-186.24660032 181.12294728 -178.45669855 196.58172318 -163.5859375 206.40625 C-150.27240737 214.61156766 -135.67398546 218.23640686 -120.0625 218.0625 C-119.28326172 218.05798828 -118.50402344 218.05347656 -117.70117188 218.04882812 C-115.80074732 218.03716908 -113.90036294 218.01923877 -112 218 C-112.433125 218.89138672 -112.433125 218.89138672 -112.875 219.80078125 C-117.4265052 229.96264876 -116.82992009 238.28819215 -113.35546875 248.76171875 C-111.1949954 253.92319542 -108.24112167 258.4569671 -105 263 C-106.01835937 262.97679687 -107.03671875 262.95359375 -108.0859375 262.9296875 C-138.94323911 262.43901066 -170.85662633 268.13612426 -194.25 289.6875 C-203.82406765 299.87008889 -211.28851751 313.04785727 -212.09375 327.1796875 C-211.77979152 336.62460521 -208.38468305 344.37614182 -203 352 C-202.37351562 352.92039062 -202.37351562 352.92039062 -201.734375 353.859375 C-189.61882626 369.77015588 -167.51537929 376.47754317 -149 381 C-147.35644531 381.40412109 -147.35644531 381.40412109 -145.6796875 381.81640625 C-113.72476326 388.04195689 -76.99523931 381.0489671 -50.00390625 362.99609375 C-37.62927041 353.67273798 -29.3235248 340.38578825 -27 325 C-26.71386713 321.22421536 -26.66558741 317.47305579 -26.6875 313.6875 C-26.69595947 312.16129028 -26.69595947 312.16129028 -26.70458984 310.60424805 C-26.95527267 295.10286617 -31.54369924 281.80830616 -42.390625 270.43359375 C-46.77405566 266.34545408 -51.49280715 262.76328267 -56.32275391 259.22900391 C-59.06662895 257.21842647 -61.78069073 255.16866293 -64.5 253.125 C-65.4384375 252.42632812 -66.376875 251.72765625 -67.34375 251.0078125 C-68.2203125 250.34523438 -69.096875 249.68265625 -70 249 C-70.87269531 248.34515625 -71.74539063 247.6903125 -72.64453125 247.015625 C-78.93966774 241.62874204 -82.65125442 234.32444524 -83.3125 226.125 C-82.94374709 216.38992327 -77.8295411 210.45805978 -71 204 C-68.67010795 202.04449422 -66.28281141 200.17083732 -63.875 198.3125 C-63.265354 197.84118652 -62.65570801 197.36987305 -62.02758789 196.88427734 C-61.13994751 196.19906006 -61.13994751 196.19906006 -60.234375 195.5 C-48.96553216 186.79401398 -41.62508951 174.23181333 -39.55859375 159.94921875 C-39.1013322 147.63265758 -42.81579142 136.40174315 -46.35742188 124.71630859 C-47.00222601 121.99059018 -47.26790508 119.78633137 -47 117 C-45 114.625 -45 114.625 -42 112 C-41.43023437 111.47535156 -40.86046875 110.95070312 -40.2734375 110.41015625 C-35.79748097 106.34864014 -31.0497774 102.81874795 -26.1328125 99.3125 C-21.80089653 96.11487624 -17.63198135 92.72507647 -13.47827148 89.30004883 C-8.43866771 85.19560111 -3.21754832 81.07251611 3 79 C3.40194841 87.30693379 1.81178447 93.87844336 -1.52954102 101.47949219 C-3.44868726 106.61821066 -3.4586422 111.54565276 -3.4765625 116.98046875 C-3.49214203 118.02914627 -3.50772156 119.07782379 -3.52377319 120.15827942 C-3.5710216 123.50134443 -3.59888243 126.8442093 -3.625 130.1875 C-3.67404515 134.55606792 -3.73089266 138.92451386 -3.7890625 143.29296875 C-3.80202866 144.36524719 -3.81499481 145.43752563 -3.82835388 146.54229736 C-3.93642741 154.3581692 -4.24201273 162.15053772 -4.64768982 169.95600891 C-4.98355387 176.43039417 -5.19324641 182.89075285 -5.1875 189.375 C-5.18669434 190.37176758 -5.18588867 191.36853516 -5.18505859 192.39550781 C-5.50741677 206.79194164 -5.50741677 206.79194164 -1 220 C3.4468111 223.06205852 8.83377855 222.62120471 14 222 C17.23121278 220.0297483 17.80579307 218.49062805 19.1875 215 C21.48574765 205.39935756 21.08599188 195.34765412 20.703125 185.56420898 C20.62523332 183.56847801 20.55869299 181.57231472 20.4921875 179.57617188 C20.28401955 173.7330131 20.01415354 167.92351131 19.47265625 162.1015625 C18.95246982 155.79986163 18.91841406 149.52562339 18.89453125 143.20703125 C18.87978238 141.00715994 18.86480416 138.80729015 18.84960938 136.60742188 C18.82688574 133.2157362 18.81245357 129.82510066 18.82495117 126.43334961 C18.86030701 113.29340184 18.27355446 101.86151392 13.3449707 89.5793457 C11.00887457 83.36233619 10.91287296 78.03031759 13.375 71.875 C15.86147312 67.41743182 19.77739404 64.70533637 23.85546875 61.76171875 C26.26097477 60.10427133 26.26097477 60.10427133 27 57 C3.77306261 56.71913589 -19.45359308 56.50780424 -42.68188667 56.37825394 C-53.46835366 56.31649036 -64.25376293 56.23235341 -75.03955078 56.09472656 C-84.44531774 55.97476647 -93.85031841 55.89761906 -103.25682914 55.87093806 C-108.2336894 55.85535107 -113.20835839 55.81897335 -118.18451309 55.73123932 C-122.87856016 55.64915761 -127.56953602 55.62478142 -132.26423264 55.64270782 C-133.97750866 55.63943375 -135.69089823 55.61592546 -137.40354919 55.5695343 C-150.09764766 55.24284765 -156.7162309 58.31917716 -165.52046371 67.47846365 Z " fill="#282828" transform="translate(367,30)"/>
<path d="M0 0 C9.81285157 9.22489145 14.17126327 18.33249873 15.890625 31.77734375 C16.23925925 44.35499488 13.2868204 53.86406248 5.15234375 63.45703125 C-6.68706914 75.60316468 -25.33943658 82.13663182 -42.109375 82.77734375 C-43.67558594 82.83728516 -43.67558594 82.83728516 -45.2734375 82.8984375 C-66.90020156 83.30603727 -88.75540521 78.41759176 -104.81640625 63.19921875 C-113.63356142 53.88638024 -117.70180239 44.6434856 -117.546875 31.83984375 C-117.53930176 30.96030029 -117.53172852 30.08075684 -117.52392578 29.17456055 C-117.3585604 22.66918318 -116.49192273 17.43254074 -113.109375 11.77734375 C-112.490625 10.63458984 -112.490625 10.63458984 -111.859375 9.46875 C-103.6399034 -4.37825755 -87.71229883 -11.55034206 -72.66796875 -15.44140625 C-47.19193741 -21.03438788 -20.45241801 -17.21281744 0 0 Z " fill="#282828" transform="translate(304.109375,318.22265625)"/>
<path d="M0 0 C1.45781415 1.226248 2.89526726 2.47706732 4.3125 3.75 C5.06273437 4.40742188 5.81296875 5.06484375 6.5859375 5.7421875 C20.81247527 18.99763054 28.90473443 38.35870397 29.71704102 57.67041016 C29.92544938 70.42500212 26.88468832 82.32397186 19.3125 92.75 C18.86132812 93.39453125 18.41015625 94.0390625 17.9453125 94.703125 C13.48385994 100.50049273 6.62607943 105.47746515 -0.6875 106.75 C-13.92443894 107.94978198 -24.20394038 103.64314518 -34.6875 95.75 C-49.0643351 83.69625106 -60.07979315 65.49908215 -62.6875 46.75 C-62.82027344 45.8528125 -62.95304688 44.955625 -63.08984375 44.03125 C-64.73743143 29.96196198 -62.00160929 16.24724063 -54 4.4375 C-39.9608756 -12.70952217 -17.03971356 -12.7206195 0 0 Z " fill="#282828" transform="translate(268.6875,135.25)"/>
</svg>
