<?xml version="1.0" encoding="UTF-8"?>
<svg xmlns="http://www.w3.org/2000/svg" xmlns:xlink="http://www.w3.org/1999/xlink" width="16px" height="16px" viewBox="0 0 16 16" version="1.1">
<g id="surface1">
<path style=" stroke:none;fill-rule:nonzero;fill:rgb(0%,0%,0%);fill-opacity:1;" d="M 2.5 2.5 L 2.5 13.5 L 13.5 13.5 L 13.5 2.5 Z M 3.5 3.5 L 12.5 3.5 L 12.5 12.5 L 3.5 12.5 Z M 9.582031 5 C 8.941406 5 8.71875 5.460938 8.71875 5.765625 L 8.71875 6.585938 C 8.71875 7 8.945312 7.398438 9.53125 7.398438 C 10.511719 7.394531 10.394531 6.652344 10.394531 6.136719 L 9.625 6.136719 L 9.625 6.40625 L 10.078125 6.40625 C 10.078125 6.8125 9.890625 7.082031 9.53125 7.082031 C 9.25 7.082031 9.085938 6.835938 9.085938 6.496094 L 9.085938 5.816406 C 9.085938 5.503906 9.382812 5.320312 9.582031 5.320312 C 9.941406 5.320312 10.078125 5.636719 10.078125 5.636719 L 10.347656 5.453125 C 10.347656 5.453125 10.21875 5 9.582031 5 Z M 6.792969 6.546875 C 6.339844 6.546875 5.648438 6.589844 5 6.5625 L 5 6.765625 C 5.390625 6.839844 5.554688 6.804688 5.554688 7.367188 L 5.554688 10.132812 C 5.554688 10.707031 5.390625 10.664062 5 10.738281 L 5 10.945312 C 5.191406 10.941406 5.515625 10.921875 5.847656 10.921875 C 6.164062 10.921875 6.570312 10.933594 6.75 10.945312 L 6.75 10.738281 C 6.246094 10.667969 6.09375 10.726562 6.09375 10.132812 L 6.09375 8.964844 C 6.265625 8.976562 6.410156 8.976562 6.632812 8.976562 C 7.0625 9.746094 7.46875 10.316406 7.703125 10.585938 C 8.125 11.097656 8.796875 11.023438 8.960938 10.945312 L 8.960938 10.757812 C 8.710938 10.757812 8.457031 10.585938 8.273438 10.386719 C 7.96875 10.054688 7.550781 9.511719 7.210938 8.902344 C 7.777344 8.765625 8.199219 8.230469 8.199219 7.703125 C 8.199219 6.910156 7.589844 6.546875 6.792969 6.546875 Z M 6.660156 6.867188 C 7.25 6.867188 7.601562 7.171875 7.601562 7.738281 C 7.601562 8.292969 7.226562 8.664062 6.597656 8.664062 C 6.363281 8.664062 6.257812 8.65625 6.09375 8.644531 L 6.09375 6.882812 C 6.257812 6.863281 6.472656 6.867188 6.660156 6.867188 Z M 6.660156 6.867188 "/>
</g>
</svg>
