<?xml version="1.0" encoding="UTF-8"?>
<svg xmlns="http://www.w3.org/2000/svg" xmlns:xlink="http://www.w3.org/1999/xlink" width="16px" height="16px" viewBox="0 0 16 16" version="1.1">
<g id="surface1">
<path style=" stroke:none;fill-rule:nonzero;fill:rgb(15.686275%,15.686275%,15.686275%);fill-opacity:1;" d="M 11.742188 0.960938 C 11.765625 0.972656 11.785156 0.980469 11.808594 0.992188 C 12.378906 1.296875 12.886719 1.671875 13.363281 2.105469 C 13.4375 2.175781 13.515625 2.238281 13.589844 2.304688 C 13.699219 2.402344 13.796875 2.5 13.886719 2.613281 C 13.9375 2.671875 13.988281 2.726562 14.039062 2.785156 C 14.460938 3.265625 14.800781 3.789062 15.105469 4.351562 C 15.117188 4.375 15.128906 4.402344 15.144531 4.425781 C 15.507812 5.113281 15.742188 5.890625 15.871094 6.65625 C 15.878906 6.683594 15.882812 6.714844 15.886719 6.742188 C 16.078125 7.847656 15.992188 9 15.710938 10.078125 C 15.703125 10.117188 15.703125 10.117188 15.695312 10.152344 C 15.347656 11.5 14.582031 12.667969 13.632812 13.664062 C 13.601562 13.695312 13.601562 13.695312 13.570312 13.730469 C 13.414062 13.894531 13.234375 14.035156 13.054688 14.175781 C 13.023438 14.203125 12.988281 14.230469 12.957031 14.257812 C 11.570312 15.390625 9.804688 15.976562 8.027344 15.976562 C 8 15.976562 7.976562 15.976562 7.949219 15.976562 C 7.511719 15.976562 7.085938 15.949219 6.65625 15.871094 C 6.625 15.867188 6.597656 15.863281 6.566406 15.855469 C 5.089844 15.589844 3.78125 14.902344 2.65625 13.921875 C 2.640625 13.90625 2.625 13.890625 2.605469 13.878906 C 2.4375 13.730469 2.277344 13.582031 2.136719 13.410156 C 2.097656 13.363281 2.058594 13.320312 2.019531 13.277344 C 0.582031 11.753906 -0.0234375 9.640625 0.03125 7.585938 C 0.109375 5.945312 0.71875 4.308594 1.761719 3.039062 C 1.773438 3.023438 1.789062 3.007812 1.800781 2.988281 C 2.175781 2.527344 2.597656 2.082031 3.070312 1.726562 C 3.09375 1.710938 3.113281 1.699219 3.132812 1.683594 C 3.492188 1.410156 3.859375 1.171875 4.257812 0.960938 C 4.285156 0.945312 4.3125 0.929688 4.339844 0.914062 C 5.214844 0.457031 6.183594 0.164062 7.167969 0.0625 C 7.199219 0.0585938 7.230469 0.0585938 7.261719 0.0546875 C 8.804688 -0.0976562 10.378906 0.230469 11.742188 0.960938 Z M 6.449219 3.121094 C 6.375 3.195312 6.296875 3.265625 6.21875 3.335938 C 6.191406 3.359375 6.160156 3.386719 6.132812 3.414062 C 6.046875 3.488281 5.960938 3.558594 5.875 3.628906 C 5.746094 3.734375 5.625 3.839844 5.503906 3.953125 C 5.355469 4.089844 5.203125 4.21875 5.046875 4.34375 C 4.957031 4.417969 4.871094 4.496094 4.785156 4.574219 C 4.671875 4.679688 4.554688 4.78125 4.433594 4.878906 C 4.289062 4.996094 4.152344 5.117188 4.015625 5.246094 C 3.878906 5.371094 3.738281 5.488281 3.59375 5.601562 C 3.507812 5.667969 3.507812 5.667969 3.425781 5.792969 C 4.152344 5.792969 4.882812 5.792969 5.632812 5.792969 C 5.648438 5.996094 5.648438 5.996094 5.664062 6.207031 C 5.785156 6.757812 6.035156 7.25 6.507812 7.566406 C 6.933594 7.828125 7.402344 7.945312 7.902344 7.9375 C 7.925781 7.9375 7.953125 7.9375 7.976562 7.9375 C 8.039062 7.9375 8.097656 7.9375 8.160156 7.9375 C 8.144531 7.964844 8.144531 7.964844 8.132812 7.992188 C 7.988281 8.320312 8.003906 8.585938 8.117188 8.921875 C 8.1875 9.085938 8.28125 9.230469 8.382812 9.375 C 8.351562 9.375 8.320312 9.375 8.285156 9.375 C 7.296875 9.359375 6.277344 9.539062 5.527344 10.230469 C 5.222656 10.554688 4.984375 10.976562 4.957031 11.429688 C 4.96875 11.730469 5.074219 11.980469 5.246094 12.222656 C 5.269531 12.253906 5.269531 12.253906 5.289062 12.285156 C 5.675781 12.792969 6.382812 13.007812 6.976562 13.152344 C 7.027344 13.164062 7.027344 13.164062 7.082031 13.179688 C 8.105469 13.378906 9.28125 13.152344 10.144531 12.574219 C 10.539062 12.277344 10.804688 11.851562 10.878906 11.359375 C 10.890625 11.238281 10.890625 11.117188 10.890625 10.996094 C 10.890625 10.949219 10.890625 10.949219 10.890625 10.898438 C 10.882812 10.402344 10.734375 9.976562 10.386719 9.613281 C 10.246094 9.484375 10.097656 9.367188 9.941406 9.253906 C 9.855469 9.191406 9.765625 9.125 9.679688 9.058594 C 9.648438 9.039062 9.621094 9.015625 9.589844 8.992188 C 9.5625 8.972656 9.53125 8.949219 9.503906 8.929688 C 9.476562 8.90625 9.449219 8.886719 9.417969 8.863281 C 9.21875 8.691406 9.097656 8.457031 9.078125 8.195312 C 9.089844 7.882812 9.253906 7.695312 9.472656 7.488281 C 9.546875 7.425781 9.621094 7.367188 9.699219 7.304688 C 9.71875 7.289062 9.738281 7.277344 9.757812 7.261719 C 9.789062 7.238281 9.789062 7.238281 9.816406 7.214844 C 10.175781 6.9375 10.410156 6.535156 10.476562 6.078125 C 10.492188 5.683594 10.375 5.324219 10.261719 4.949219 C 10.238281 4.863281 10.230469 4.792969 10.238281 4.703125 C 10.304688 4.628906 10.304688 4.628906 10.398438 4.542969 C 10.417969 4.527344 10.4375 4.511719 10.457031 4.492188 C 10.597656 4.363281 10.75 4.25 10.90625 4.136719 C 11.046875 4.035156 11.179688 3.925781 11.3125 3.816406 C 11.472656 3.6875 11.640625 3.554688 11.839844 3.488281 C 11.851562 3.753906 11.800781 3.964844 11.695312 4.207031 C 11.632812 4.371094 11.632812 4.53125 11.632812 4.703125 C 11.632812 4.738281 11.632812 4.769531 11.632812 4.804688 C 11.628906 4.910156 11.628906 5.019531 11.628906 5.125 C 11.625 5.265625 11.625 5.40625 11.621094 5.546875 C 11.621094 5.578125 11.621094 5.613281 11.621094 5.648438 C 11.617188 5.898438 11.609375 6.148438 11.59375 6.398438 C 11.585938 6.605469 11.578125 6.8125 11.578125 7.019531 C 11.578125 7.050781 11.578125 7.082031 11.578125 7.117188 C 11.566406 7.578125 11.566406 7.578125 11.710938 8 C 11.855469 8.097656 12.027344 8.082031 12.191406 8.0625 C 12.296875 8 12.3125 7.953125 12.359375 7.839844 C 12.429688 7.53125 12.417969 7.210938 12.40625 6.898438 C 12.402344 6.835938 12.402344 6.769531 12.398438 6.707031 C 12.394531 6.519531 12.382812 6.332031 12.367188 6.148438 C 12.351562 5.945312 12.347656 5.746094 12.347656 5.542969 C 12.347656 5.472656 12.347656 5.402344 12.347656 5.332031 C 12.347656 5.222656 12.347656 5.113281 12.347656 5.007812 C 12.347656 4.585938 12.328125 4.21875 12.171875 3.828125 C 12.097656 3.628906 12.09375 3.457031 12.171875 3.261719 C 12.25 3.117188 12.375 3.03125 12.507812 2.9375 C 12.585938 2.882812 12.585938 2.882812 12.609375 2.785156 C 11.863281 2.773438 11.121094 2.769531 10.378906 2.765625 C 10.03125 2.761719 9.6875 2.757812 9.34375 2.753906 C 9.042969 2.75 8.742188 2.75 8.441406 2.746094 C 8.28125 2.746094 8.121094 2.746094 7.960938 2.742188 C 7.8125 2.742188 7.660156 2.738281 7.511719 2.742188 C 7.457031 2.742188 7.402344 2.738281 7.347656 2.738281 C 6.941406 2.726562 6.730469 2.828125 6.449219 3.121094 Z M 6.449219 3.121094 "/>
<path style=" stroke:none;fill-rule:nonzero;fill:rgb(15.686275%,15.686275%,15.686275%);fill-opacity:1;" d="M 9.730469 10.183594 C 10.046875 10.476562 10.183594 10.769531 10.238281 11.199219 C 10.25 11.601562 10.15625 11.90625 9.894531 12.214844 C 9.515625 12.601562 8.921875 12.8125 8.382812 12.832031 C 8.332031 12.832031 8.332031 12.832031 8.28125 12.835938 C 7.589844 12.847656 6.890625 12.691406 6.378906 12.207031 C 6.09375 11.90625 5.964844 11.613281 5.96875 11.203125 C 5.96875 11.175781 5.96875 11.144531 5.972656 11.117188 C 5.976562 10.910156 6.003906 10.742188 6.113281 10.558594 C 6.132812 10.523438 6.132812 10.523438 6.152344 10.484375 C 6.414062 10.042969 6.925781 9.8125 7.40625 9.6875 C 8.222656 9.511719 9.078125 9.632812 9.730469 10.183594 Z M 9.730469 10.183594 "/>
<path style=" stroke:none;fill-rule:nonzero;fill:rgb(15.686275%,15.686275%,15.686275%);fill-opacity:1;" d="M 8.597656 4.328125 C 8.644531 4.367188 8.691406 4.40625 8.734375 4.449219 C 8.761719 4.46875 8.785156 4.488281 8.808594 4.511719 C 9.265625 4.9375 9.523438 5.554688 9.550781 6.171875 C 9.554688 6.582031 9.457031 6.960938 9.214844 7.296875 C 9.203125 7.316406 9.1875 7.335938 9.171875 7.359375 C 9.03125 7.542969 8.808594 7.703125 8.574219 7.742188 C 8.152344 7.78125 7.824219 7.644531 7.488281 7.390625 C 7.027344 7.007812 6.675781 6.425781 6.59375 5.824219 C 6.585938 5.796875 6.582031 5.765625 6.578125 5.738281 C 6.527344 5.285156 6.613281 4.847656 6.871094 4.46875 C 7.320312 3.921875 8.050781 3.921875 8.597656 4.328125 Z M 8.597656 4.328125 "/>
</g>
</svg>
